# xmcd
#
# Track frame offsets:
#	150
#	18727
#	30340
#	44913
#	62430
#	75362
#	88847
#	108875
#	127691
#	150566
#	171969
#	185797
#	199025
#	212856
#	226810
#
# Disc length: 3266 seconds
#
# Revision: 1
# Processed by: cddbd v1.5.1PL2 Copyright (c) Steve Scherf et al.
# Submitted via: audiograbber 1.83.01
#
DISCID=be0cc00f
DTITLE=Various Artist - CB6144
DYEAR=1900
DGENRE=Karaoke
TTITLE0=Charlie Daniels - South's Gonna Do It Again, The
TTITLE1=Marty Stuart - Till I Found You
TTITLE2=Marty Stuart - Hey Baby
TTITLE3=Marty Stuart - Love And Luck
TTITLE4=Travis Tritt and Marty Stuart - Whiskey Ain't Workin', The
TTITLE5=Travis Tritt - Bible Belt
TTITLE6=Travis Tritt - Foolish Pride
TTITLE7=Travis Tritt - Between An Old Memory And Me
TTITLE8=Travis Tritt - Sign Of The Times
TTITLE9=Travis Tritt - Sometimes She Forgets
TTITLE10=Chris Ledoux - Cadillac Ranch
TTITLE11=Don Williams - True Love
TTITLE12=Dwight Yoakam - Try Not To Look So Pretty
TTITLE13=Dwight Yoakam - Pocket Of A Clown
TTITLE14=Dwight Yoakam - Nothing
EXTD=
EXTT0=
EXTT1=
EXTT2=
EXTT3=
EXTT4=
EXTT5=
EXTT6=
EXTT7=
EXTT8=
EXTT9=
EXTT10=
EXTT11=
EXTT12=
EXTT13=
EXTT14=
PLAYORDER=
